<svg width="9" height="12" viewBox="0 0 9 12" fill="none" xmlns="http://www.w3.org/2000/svg">
<path d="M2.30273 8.88985C2.67297 9.35289 3.05005 9.93511 3.24738 10.2868C3.48769 10.744 3.58733 11.0527 3.7661 11.6056C3.87063 11.9084 3.97027 12.0002 4.17932 12.0002C4.40791 12.0002 4.51244 11.8459 4.59254 11.6056C4.75959 11.0868 4.88853 10.6922 5.0927 10.3161C5.88007 8.83123 7.16369 7.7762 7.88658 6.33042C7.88658 6.33042 8.36232 5.44732 8.36232 4.21059C8.36232 3.05788 7.89341 2.25684 7.89341 2.25684L2.30566 8.89961L2.30273 8.88985Z" fill="#34A853"/>
<path d="M0.407229 6.17383C0.85757 7.19955 1.71625 8.09828 2.30237 8.88955L5.40885 5.20672C5.40885 5.20672 4.97023 5.78113 4.17798 5.78113C3.29488 5.78113 2.5759 5.07777 2.5759 4.18881C2.5759 3.57729 2.94028 3.15332 2.94028 3.15332C0.654379 3.49327 0.781374 4.04716 0.400391 6.17188L0.407229 6.17383Z" fill="#FBBC04"/>
<path d="M5.4471 0.192383C6.48259 0.525499 7.36178 1.22787 7.8893 2.2536L5.40802 5.21354C5.40802 5.21354 5.7724 4.78762 5.7724 4.17805C5.7724 3.27053 5.00653 2.58574 4.18009 2.58574C3.39565 2.58574 2.94922 3.1533 2.94922 3.1533C3.13971 2.71957 5.10812 0.339892 5.45003 0.19336L5.4471 0.192383Z" fill="#4285F4"/>
<path d="M0.974609 1.49463C1.592 0.760012 2.67438 0 4.169 0C4.89092 0 5.43895 0.191468 5.43895 0.191468L2.94791 3.15141C2.77988 3.06027 1.14068 1.78378 0.974609 1.49072V1.49463Z" fill="#1A73E8"/>
<path d="M0.407359 6.17388C0.407359 6.17388 0 5.36502 0 4.20058C0 3.09671 0.431781 2.1296 0.976879 1.50439L2.95018 3.16509L0.410289 6.17388H0.407359Z" fill="#EA4335"/>
</svg>
