<svg width="270" height="40" viewBox="0 0 270 40" fill="none" xmlns="http://www.w3.org/2000/svg">
<path d="M34.9515 8.95961C30.008 8.95961 26.0005 4.94825 26.0005 0H18.3282C18.3282 9.18961 25.7707 16.6393 34.9515 16.6393V8.95961Z" fill="#FF2F00"/>
<path d="M0 26.0255C4.94349 26.0255 8.95098 30.0369 8.95098 34.9851H16.6233C16.6233 25.7955 9.18077 18.3459 0 18.3459V26.0255Z" fill="#FF2F00"/>
<path d="M16.6233 0V16.6393H0V8.95961H8.95098V0H16.6233Z" fill="#FF2F00"/>
<path d="M18.3282 34.9851V18.3459H34.9515V26.0255H26.0005V34.9851H18.3282Z" fill="#FF2F00"/>
<path d="M260.891 21.3035V31.8128H255.871V9.74327H260.891V17.2099L260.861 17.2299C261.081 16.0755 261.407 15.0346 261.841 14.1071C262.281 13.1796 262.831 12.3923 263.491 11.745C264.15 11.0978 264.924 10.604 265.81 10.2637C266.704 9.91676 267.717 9.74327 268.85 9.74327H270V14.4975H268.35C266.93 14.4975 265.74 14.6343 264.78 14.9078C263.827 15.1814 263.064 15.5984 262.491 16.1589C261.917 16.7194 261.507 17.4267 261.261 18.2808C261.014 19.1349 260.891 20.1425 260.891 21.3035Z" fill="#FF2F00"/>
<path d="M232.973 17.6302C232.973 16.3291 233.213 15.1547 233.693 14.1071C234.173 13.0595 234.856 12.1687 235.743 11.4348C236.636 10.6941 237.719 10.1269 238.992 9.73326C240.272 9.33958 241.706 9.14274 243.292 9.14274C244.952 9.14274 246.435 9.35959 247.742 9.79331C249.055 10.227 250.165 10.8542 251.071 11.675C251.978 12.4957 252.671 13.4999 253.151 14.6876C253.638 15.8687 253.881 17.2132 253.881 18.7212V31.8128H248.862V25.9076H248.892C248.725 26.5815 248.495 27.2087 248.202 27.7892C247.915 28.3697 247.572 28.9035 247.172 29.3906C246.772 29.8711 246.319 30.2981 245.812 30.6718C245.305 31.0454 244.752 31.3624 244.152 31.6226C243.559 31.8828 242.922 32.0797 242.242 32.2131C241.562 32.3466 240.846 32.4133 240.092 32.4133C238.926 32.4133 237.863 32.2565 236.903 31.9429C235.949 31.6293 235.133 31.1855 234.453 30.6117C233.773 30.0312 233.246 29.3372 232.873 28.5299C232.506 27.7158 232.323 26.815 232.323 25.8275C232.323 24.7999 232.526 23.8791 232.933 23.065C233.34 22.251 233.923 21.5604 234.683 20.9932C235.449 20.4194 236.379 19.9823 237.473 19.682C238.572 19.3818 239.816 19.2317 241.202 19.2317H249.012V22.7548H241.492C240.806 22.7548 240.202 22.8148 239.682 22.9349C239.169 23.0484 238.736 23.2218 238.383 23.4554C238.036 23.6823 237.773 23.9658 237.593 24.3061C237.413 24.6464 237.323 25.0401 237.323 25.4872C237.323 25.9543 237.419 26.3713 237.613 26.7383C237.813 27.1053 238.103 27.4122 238.482 27.6591C238.862 27.906 239.332 28.0962 239.892 28.2296C240.452 28.3564 241.096 28.4198 241.822 28.4198C242.502 28.4198 243.149 28.3631 243.762 28.2496C244.375 28.1295 244.942 27.966 245.462 27.7592C245.982 27.5457 246.452 27.2921 246.872 26.9985C247.292 26.6983 247.648 26.3613 247.942 25.9876C248.242 25.614 248.468 25.2103 248.622 24.7766C248.782 24.3362 248.862 23.8724 248.862 23.3853V18.7212C248.862 17.8871 248.732 17.1398 248.472 16.4792C248.212 15.812 247.835 15.2448 247.342 14.7777C246.855 14.3106 246.262 13.9537 245.562 13.7068C244.862 13.4599 244.072 13.3364 243.192 13.3364C242.292 13.3364 241.516 13.4399 240.862 13.6467C240.209 13.8469 239.669 14.1338 239.242 14.5075C238.816 14.8745 238.499 15.3249 238.293 15.8587C238.086 16.3858 237.983 16.9763 237.983 17.6302H232.973Z" fill="#FF2F00"/>
<path d="M225.828 9.74327H230.847V28.3297C230.847 30.0912 230.591 31.6893 230.077 33.1239C229.571 34.5652 228.847 35.793 227.907 36.8072C226.967 37.8281 225.831 38.6154 224.498 39.1693C223.164 39.7231 221.678 40 220.038 40C219.065 40 218.138 39.9032 217.258 39.7097C216.385 39.5229 215.575 39.2493 214.828 38.889C214.082 38.5354 213.405 38.105 212.799 37.5979C212.199 37.0974 211.685 36.5336 211.259 35.9064C210.832 35.2792 210.505 34.5952 210.279 33.8546C210.052 33.1206 209.939 32.3466 209.939 31.5325H214.948C214.948 32.1664 215.078 32.7503 215.338 33.2841C215.598 33.8179 215.955 34.2783 216.408 34.6653C216.862 35.059 217.395 35.3659 218.008 35.5861C218.628 35.8063 219.295 35.9164 220.008 35.9164C220.901 35.9164 221.708 35.7396 222.428 35.3859C223.148 35.0323 223.758 34.5252 224.258 33.8646C224.758 33.2107 225.144 32.4166 225.418 31.4825C225.691 30.5483 225.828 29.5041 225.828 28.3497V24.0259L225.858 24.0059C225.598 25.1135 225.228 26.1077 224.748 26.9885C224.268 27.8626 223.688 28.6066 223.008 29.2205C222.334 29.8344 221.571 30.3048 220.718 30.6317C219.871 30.952 218.941 31.1121 217.928 31.1121C217.055 31.1121 216.225 30.9887 215.438 30.7418C214.652 30.4949 213.925 30.1446 213.259 29.6909C212.592 29.2305 211.989 28.6733 211.449 28.0194C210.915 27.3655 210.459 26.6315 210.079 25.8175C209.705 24.9967 209.415 24.106 209.209 23.1451C209.009 22.1776 208.909 21.1567 208.909 20.0824C208.909 19.0081 209.009 17.9906 209.209 17.0297C209.415 16.0689 209.705 15.1847 210.079 14.3774C210.459 13.57 210.915 12.8427 211.449 12.1954C211.989 11.5482 212.592 11.001 213.259 10.554C213.925 10.1002 214.652 9.75328 215.438 9.51306C216.225 9.26618 217.055 9.14274 217.928 9.14274C218.941 9.14274 219.871 9.30288 220.718 9.62316C221.571 9.94344 222.334 10.4072 223.008 11.0144C223.688 11.6149 224.268 12.3489 224.748 13.2163C225.228 14.0838 225.598 15.068 225.858 16.1689L225.828 16.1489V9.74327ZM225.828 20.0824C225.828 19.3818 225.764 18.7345 225.638 18.1407C225.518 17.5402 225.341 16.9963 225.108 16.5092C224.874 16.0221 224.584 15.5918 224.238 15.2181C223.891 14.8444 223.491 14.5308 223.038 14.2773C222.584 14.0237 222.081 13.8335 221.528 13.7068C220.981 13.5733 220.388 13.5066 219.748 13.5066C218.808 13.5066 217.978 13.6467 217.258 13.927C216.538 14.2005 215.932 14.6142 215.438 15.1681C214.945 15.7219 214.572 16.4092 214.318 17.2299C214.072 18.0439 213.948 18.9948 213.948 20.0824C213.948 21.17 214.075 22.1275 214.328 22.9549C214.582 23.7823 214.952 24.4796 215.438 25.0468C215.932 25.6073 216.538 26.031 217.258 26.3179C217.978 26.6048 218.808 26.7483 219.748 26.7483C220.388 26.7483 220.981 26.6816 221.528 26.5481C222.081 26.408 222.581 26.2111 223.028 25.9576C223.481 25.6974 223.881 25.3771 224.228 24.9967C224.581 24.6097 224.874 24.1693 225.108 23.6756C225.341 23.1818 225.518 22.6347 225.638 22.0341C225.764 21.4336 225.828 20.783 225.828 20.0824Z" fill="#FF2F00"/>
<path d="M186.491 17.6302C186.491 16.3291 186.731 15.1547 187.211 14.1071C187.691 13.0595 188.374 12.1687 189.26 11.4348C190.154 10.6941 191.237 10.1269 192.51 9.73325C193.79 9.33957 195.223 9.14273 196.81 9.14273C198.47 9.14273 199.953 9.35959 201.259 9.79331C202.573 10.227 203.683 10.8542 204.589 11.675C205.496 12.4957 206.189 13.4999 206.669 14.6876C207.156 15.8687 207.399 17.2132 207.399 18.7212V31.8128H202.379V25.9075H202.409C202.243 26.5815 202.013 27.2087 201.719 27.7892C201.433 28.3697 201.089 28.9035 200.69 29.3906C200.29 29.871 199.836 30.2981 199.33 30.6718C198.823 31.0454 198.27 31.3624 197.67 31.6226C197.076 31.8828 196.44 32.0797 195.76 32.2131C195.08 32.3466 194.363 32.4133 193.61 32.4133C192.443 32.4133 191.38 32.2565 190.42 31.9429C189.467 31.6293 188.65 31.1855 187.971 30.6117C187.291 30.0312 186.764 29.3372 186.391 28.5299C186.024 27.7158 185.841 26.815 185.841 25.8275C185.841 24.7999 186.044 23.8791 186.451 23.065C186.857 22.251 187.441 21.5604 188.2 20.9932C188.967 20.4194 189.897 19.9823 190.99 19.682C192.09 19.3818 193.333 19.2316 194.72 19.2316H202.529V22.7548H195.01C194.323 22.7548 193.72 22.8148 193.2 22.9349C192.687 23.0484 192.253 23.2218 191.9 23.4554C191.554 23.6822 191.29 23.9658 191.11 24.3061C190.93 24.6464 190.84 25.0401 190.84 25.4872C190.84 25.9543 190.937 26.3713 191.13 26.7383C191.33 27.1053 191.62 27.4122 192 27.6591C192.38 27.906 192.85 28.0961 193.41 28.2296C193.97 28.3564 194.613 28.4198 195.34 28.4198C196.02 28.4198 196.666 28.363 197.28 28.2496C197.893 28.1295 198.46 27.966 198.98 27.7592C199.5 27.5457 199.97 27.2921 200.39 26.9985C200.809 26.6982 201.166 26.3613 201.459 25.9876C201.759 25.614 201.986 25.2103 202.139 24.7765C202.299 24.3362 202.379 23.8724 202.379 23.3853V18.7212C202.379 17.8871 202.249 17.1398 201.989 16.4792C201.729 15.812 201.353 15.2448 200.859 14.7777C200.373 14.3106 199.78 13.9536 199.08 13.7068C198.38 13.4599 197.59 13.3364 196.71 13.3364C195.81 13.3364 195.033 13.4399 194.38 13.6467C193.727 13.8469 193.187 14.1338 192.76 14.5075C192.333 14.8745 192.017 15.3249 191.81 15.8587C191.604 16.3858 191.5 16.9763 191.5 17.6302H186.491ZM195.89 2.91723V7.65141H191.38V2.91723H195.89ZM202.229 2.91723V7.65141H197.72V2.91723H202.229Z" fill="#FF2F00"/>
<path d="M182.669 3.18745H188.149L178.329 31.8128H170.75L161.071 3.18745H166.67L175.32 30.1213H173.89L182.669 3.18745Z" fill="#FF2F00"/>
<path d="M139.423 17.6302C139.423 16.3291 139.662 15.1547 140.142 14.1071C140.622 13.0595 141.306 12.1687 142.192 11.4348C143.086 10.6941 144.169 10.1269 145.442 9.73326C146.722 9.33958 148.155 9.14274 149.742 9.14274C151.402 9.14274 152.885 9.35959 154.191 9.79331C155.505 10.227 156.614 10.8542 157.521 11.675C158.428 12.4957 159.121 13.4999 159.601 14.6876C160.088 15.8687 160.331 17.2132 160.331 18.7212V31.8128H155.311V25.9076H155.341C155.175 26.5815 154.945 27.2087 154.651 27.7892C154.365 28.3697 154.021 28.9035 153.621 29.3906C153.221 29.8711 152.768 30.2981 152.261 30.6718C151.755 31.0454 151.202 31.3624 150.602 31.6226C150.008 31.8828 149.372 32.0797 148.692 32.2131C148.012 32.3466 147.295 32.4133 146.542 32.4133C145.375 32.4133 144.312 32.2565 143.352 31.9429C142.399 31.6293 141.582 31.1855 140.902 30.6117C140.222 30.0312 139.696 29.3372 139.323 28.5299C138.956 27.7158 138.773 26.815 138.773 25.8275C138.773 24.7999 138.976 23.8791 139.383 23.065C139.789 22.251 140.372 21.5604 141.132 20.9932C141.899 20.4194 142.829 19.9823 143.922 19.682C145.022 19.3818 146.265 19.2317 147.652 19.2317H155.461V22.7548H147.942C147.255 22.7548 146.652 22.8148 146.132 22.9349C145.619 23.0484 145.185 23.2218 144.832 23.4554C144.485 23.6823 144.222 23.9658 144.042 24.3061C143.862 24.6464 143.772 25.0401 143.772 25.4872C143.772 25.9543 143.869 26.3713 144.062 26.7383C144.262 27.1053 144.552 27.4122 144.932 27.6591C145.312 27.906 145.782 28.0962 146.342 28.2296C146.902 28.3564 147.545 28.4198 148.272 28.4198C148.952 28.4198 149.598 28.3631 150.212 28.2496C150.825 28.1295 151.392 27.966 151.912 27.7592C152.431 27.5457 152.901 27.2921 153.321 26.9985C153.741 26.6983 154.098 26.3613 154.391 25.9876C154.691 25.614 154.918 25.2103 155.071 24.7766C155.231 24.3362 155.311 23.8724 155.311 23.3853V18.7212C155.311 17.8871 155.181 17.1398 154.921 16.4792C154.661 15.812 154.285 15.2448 153.791 14.7777C153.305 14.3106 152.711 13.9537 152.012 13.7068C151.312 13.4599 150.522 13.3364 149.642 13.3364C148.742 13.3364 147.965 13.4399 147.312 13.6467C146.659 13.8469 146.119 14.1338 145.692 14.5075C145.265 14.8745 144.949 15.3249 144.742 15.8587C144.535 16.3858 144.432 16.9763 144.432 17.6302H139.423Z" fill="#FF2F00"/>
<path d="M129.412 21.3035V31.8128H124.392V9.74327H129.412V17.2099L129.382 17.2299C129.602 16.0755 129.929 15.0346 130.362 14.1071C130.802 13.1796 131.352 12.3923 132.012 11.745C132.672 11.0978 133.445 10.604 134.332 10.2637C135.225 9.91676 136.238 9.74327 137.371 9.74327H138.521V14.4975H136.871C135.452 14.4975 134.262 14.6343 133.302 14.9078C132.348 15.1814 131.585 15.5984 131.012 16.1589C130.439 16.7194 130.029 17.4267 129.782 18.2808C129.535 19.1349 129.412 20.1425 129.412 21.3035Z" fill="#FF2F00"/>
<path d="M122.313 9.74327L110.954 21.0433V20.8731L123.273 31.8128H116.554L106.774 22.9149L106.854 22.8749V31.8128H101.835V2.18659H106.854V19.4118L106.774 19.3818L116.184 9.74327H122.313Z" fill="#FF2F00"/>
<path d="M78.9366 17.6302C78.9366 16.3291 79.1766 15.1547 79.6565 14.1071C80.1365 13.0595 80.8198 12.1687 81.7064 11.4348C82.5996 10.6941 83.6829 10.1269 84.9561 9.73325C86.236 9.33957 87.6692 9.14273 89.2558 9.14273C90.9156 9.14273 92.3989 9.35959 93.7054 9.79331C95.0187 10.227 96.1286 10.8542 97.0352 11.675C97.9418 12.4957 98.635 13.4999 99.115 14.6876C99.6016 15.8687 99.845 17.2132 99.845 18.7212V31.8128H94.8253V25.9075H94.8553C94.6887 26.5815 94.4587 27.2087 94.1654 27.7892C93.8788 28.3697 93.5354 28.9035 93.1355 29.3906C92.7355 29.871 92.2822 30.2981 91.7756 30.6718C91.269 31.0454 90.7157 31.3624 90.1157 31.6226C89.5224 31.8828 88.8858 32.0797 88.2059 32.2131C87.5259 32.3466 86.8093 32.4133 86.056 32.4133C84.8895 32.4133 83.8262 32.2565 82.8663 31.9429C81.913 31.6293 81.0964 31.1855 80.4165 30.6117C79.7365 30.0312 79.2099 29.3372 78.8366 28.5299C78.47 27.7158 78.2866 26.815 78.2866 25.8275C78.2866 24.7999 78.49 23.8791 78.8966 23.065C79.3032 22.251 79.8865 21.5604 80.6465 20.9932C81.4131 20.4194 82.343 19.9823 83.4362 19.682C84.5362 19.3818 85.7794 19.2316 87.1659 19.2316H94.9753V22.7548H87.4559C86.7693 22.7548 86.166 22.8148 85.6461 22.9349C85.1328 23.0484 84.6995 23.2218 84.3462 23.4554C83.9995 23.6822 83.7362 23.9658 83.5562 24.3061C83.3762 24.6464 83.2862 25.0401 83.2862 25.4872C83.2862 25.9543 83.3829 26.3713 83.5762 26.7383C83.7762 27.1053 84.0662 27.4122 84.4462 27.6591C84.8261 27.906 85.2961 28.0961 85.8561 28.2296C86.416 28.3564 87.0593 28.4198 87.7859 28.4198C88.4658 28.4198 89.1125 28.363 89.7257 28.2496C90.339 28.1295 90.9057 27.966 91.4256 27.7592C91.9456 27.5457 92.4155 27.2921 92.8355 26.9985C93.2555 26.6982 93.6121 26.3613 93.9054 25.9876C94.2054 25.614 94.432 25.2103 94.5854 24.7765C94.7453 24.3362 94.8253 23.8724 94.8253 23.3853V18.7212C94.8253 17.8871 94.6954 17.1398 94.4354 16.4792C94.1754 15.812 93.7988 15.2448 93.3055 14.7777C92.8188 14.3106 92.2255 13.9536 91.5256 13.7068C90.8257 13.4599 90.0357 13.3364 89.1558 13.3364C88.2559 13.3364 87.4793 13.4399 86.826 13.6467C86.1727 13.8469 85.6327 14.1338 85.2061 14.5075C84.7795 14.8745 84.4628 15.3249 84.2562 15.8587C84.0495 16.3858 83.9462 16.9763 83.9462 17.6302H78.9366ZM88.3359 2.91723V7.65141H83.8262V2.91723H88.3359ZM94.6754 2.91723V7.65141H90.1657V2.91723H94.6754Z" fill="#FF2F00"/>
<path d="M64.6862 2.58694C66.4594 2.58694 68.0593 2.80379 69.4858 3.23751C70.9124 3.67123 72.129 4.29511 73.1355 5.10916C74.1421 5.91654 74.9154 6.90408 75.4554 8.07178C76.002 9.23948 76.2753 10.554 76.2753 12.0153H71.1957C71.1957 11.2546 71.0357 10.5707 70.7157 9.96345C70.4024 9.34958 69.9558 8.82912 69.3758 8.40207C68.8025 7.96836 68.1126 7.63807 67.306 7.4112C66.4994 7.17766 65.6061 7.06089 64.6262 7.06089C64.0796 7.06089 63.5396 7.10092 63.0063 7.18099C62.473 7.25439 61.9631 7.36783 61.4765 7.5213C60.9898 7.66809 60.5399 7.85826 60.1266 8.0918C59.7133 8.31867 59.3566 8.5889 59.0566 8.90252C58.7567 9.20945 58.52 9.55976 58.3467 9.95344C58.1734 10.3471 58.0867 10.7808 58.0867 11.2546C58.0867 11.6816 58.1567 12.0553 58.2967 12.3756C58.4367 12.6959 58.64 12.9728 58.9067 13.2063C59.18 13.4399 59.5133 13.6434 59.9066 13.8169C60.3066 13.9837 60.7632 14.1305 61.2765 14.2572C61.7898 14.3774 62.3564 14.4908 62.9763 14.5975C63.5963 14.7043 64.2729 14.8111 65.0062 14.9178L66.3261 15.118C67.1327 15.2314 67.9626 15.3649 68.8159 15.5184C69.6691 15.6652 70.4991 15.862 71.3057 16.1089C72.119 16.3558 72.8856 16.6694 73.6055 17.0497C74.3321 17.4234 74.9654 17.8971 75.5054 18.471C76.052 19.0448 76.4819 19.7354 76.7953 20.5428C77.1152 21.3502 77.2752 22.3077 77.2752 23.4153C77.2752 24.91 76.9786 26.2212 76.3853 27.3488C75.792 28.4698 74.9554 29.4073 73.8755 30.1613C72.8022 30.9086 71.509 31.4691 69.9958 31.8428C68.4892 32.2231 66.8194 32.4133 64.9862 32.4133C62.9997 32.4133 61.2265 32.1964 59.6666 31.7627C58.1134 31.329 56.8002 30.6984 55.7269 29.871C54.6537 29.037 53.8337 28.0194 53.2671 26.8183C52.7071 25.6173 52.4272 24.2527 52.4272 22.7247H57.5068C57.5068 23.5388 57.6801 24.2694 58.0267 24.9167C58.3734 25.5639 58.8667 26.1111 59.5066 26.5581C60.1466 27.0052 60.9265 27.3488 61.8464 27.589C62.7664 27.8226 63.7963 27.9393 64.9362 27.9393C65.9228 27.9393 66.8494 27.8493 67.716 27.6691C68.5826 27.4889 69.3392 27.2154 69.9858 26.8484C70.6324 26.4747 71.1457 26.0076 71.5257 25.4471C71.9056 24.88 72.0956 24.2094 72.0956 23.4354C72.0956 22.9616 72.0223 22.5546 71.8756 22.2143C71.7357 21.8673 71.529 21.567 71.2557 21.3135C70.989 21.0599 70.6624 20.8464 70.2758 20.6729C69.8958 20.4994 69.4592 20.3526 68.9659 20.2325C68.4792 20.1057 67.9426 19.9957 67.356 19.9022C66.7694 19.8021 66.1461 19.7021 65.4861 19.602L63.7963 19.3517C62.9897 19.2383 62.1631 19.1115 61.3165 18.9714C60.4699 18.8246 59.6433 18.6378 58.8367 18.4109C58.0301 18.1774 57.2668 17.8838 56.5468 17.5301C55.8336 17.1698 55.207 16.7194 54.667 16.1789C54.127 15.6318 53.6971 14.9779 53.3771 14.2172C53.0638 13.4499 52.9071 12.5391 52.9071 11.4848C52.9071 10.5106 53.0471 9.61314 53.3271 8.79242C53.6071 7.97169 54.0004 7.23437 54.507 6.58046C55.0136 5.91988 55.6236 5.3427 56.3369 4.84893C57.0501 4.34849 57.8434 3.93146 58.7167 3.59783C59.5899 3.2642 60.5299 3.01398 61.5365 2.84717C62.543 2.67368 63.593 2.58694 64.6862 2.58694Z" fill="#FF2F00"/>
</svg>
